<svg width="45" height="29" viewBox="0 0 45 29" fill="none" xmlns="http://www.w3.org/2000/svg">
<rect width="45" height="29" rx="2" fill="white"/>
<path d="M21.5218 17.9746H20.5096V10.0963H23.1928C23.8729 10.0963 24.4527 10.323 24.9272 10.7765C25.4122 11.23 25.6547 11.7837 25.6547 12.4376C25.6547 13.1073 25.4122 13.661 24.9272 14.1093C24.458 14.5575 23.8781 14.779 23.1928 14.779H21.5218V17.9746ZM21.5218 11.0666V13.814H23.2139C23.6146 13.814 23.9519 13.6769 24.2155 13.4079C24.4844 13.139 24.6214 12.812 24.6214 12.4429C24.6214 12.079 24.4844 11.7574 24.2155 11.4884C23.9519 11.2089 23.6198 11.0718 23.2139 11.0718H21.5218V11.0666Z" fill="#3C4043"/>
<path d="M28.3009 12.406C29.0494 12.406 29.6398 12.6064 30.0721 13.0071C30.5044 13.4079 30.7205 13.9563 30.7205 14.6524V17.9746H29.7558V17.2258H29.7136C29.2972 17.8428 28.7384 18.1486 28.0426 18.1486C27.4469 18.1486 26.9514 17.9746 26.5507 17.6213C26.1501 17.268 25.9498 16.8303 25.9498 16.303C25.9498 15.744 26.1606 15.301 26.5823 14.9741C27.0041 14.6419 27.5681 14.4784 28.2692 14.4784C28.8702 14.4784 29.3657 14.5891 29.7505 14.8106V14.5786C29.7505 14.2253 29.6135 13.93 29.3341 13.6821C29.0547 13.4343 28.7279 13.313 28.3536 13.313C27.7895 13.313 27.3414 13.5503 27.0146 14.0302L26.1237 13.4712C26.614 12.7593 27.3414 12.406 28.3009 12.406ZM26.9935 16.3188C26.9935 16.5825 27.1042 16.8039 27.3309 16.978C27.5523 17.152 27.8159 17.2416 28.1164 17.2416C28.5434 17.2416 28.9229 17.0834 29.255 16.767C29.5871 16.4506 29.7558 16.0815 29.7558 15.6544C29.4395 15.4065 29.002 15.2799 28.4379 15.2799C28.0267 15.2799 27.6841 15.3801 27.41 15.5753C27.1306 15.7809 26.9935 16.0288 26.9935 16.3188Z" fill="#3C4043"/>
<path d="M36.2241 12.5801L32.8503 20.3424H31.8065L33.0611 17.6266L30.8365 12.5801H31.9383L33.5408 16.4507H33.5619L35.1223 12.5801H36.2241Z" fill="#3C4043"/>
<path d="M17.4958 14.1409C17.4958 13.8108 17.4663 13.4949 17.4115 13.1912H13.1689V14.9314L15.6123 14.9319C15.5132 15.5109 15.1943 16.0045 14.7056 16.3336V17.4626H16.16C17.0093 16.6763 17.4958 15.5141 17.4958 14.1409Z" fill="#4285F4"/>
<path d="M14.7061 16.3336C14.3013 16.6068 13.7799 16.7665 13.17 16.7665C11.9918 16.7665 10.9923 15.9724 10.6344 14.9019H9.13409V16.0663C9.87738 17.5417 11.4051 18.5542 13.17 18.5542C14.3898 18.5542 15.4146 18.1529 16.1605 17.4621L14.7061 16.3336Z" fill="#34A853"/>
<path d="M10.493 14.0381C10.493 13.7375 10.5431 13.4469 10.6343 13.1738V12.0094H9.13405C8.82671 12.6195 8.65381 13.3082 8.65381 14.0381C8.65381 14.7679 8.82724 15.4566 9.13405 16.0667L10.6343 14.9024C10.5431 14.6292 10.493 14.3387 10.493 14.0381Z" fill="#FABB05"/>
<path d="M13.17 11.3091C13.8358 11.3091 14.432 11.5385 14.9027 11.9868L16.1916 10.6985C15.4088 9.96919 14.3882 9.52148 13.17 9.52148C11.4056 9.52148 9.87733 10.534 9.13405 12.0094L10.6343 13.1738C10.9923 12.1033 11.9918 11.3091 13.17 11.3091Z" fill="#E94235"/>
</svg>
