<svg width="99" height="26" viewBox="0 0 99 26" fill="none" xmlns="http://www.w3.org/2000/svg">
<g clip-path="url(#clip0_592_5782)">
<mask id="mask0_592_5782" style="mask-type:luminance" maskUnits="userSpaceOnUse" x="0" y="0" width="99" height="26">
<path d="M98.5 0H0.5V26H98.5V0Z" fill="white"/>
</mask>
<g mask="url(#mask0_592_5782)">
<path d="M12.1956 13.2852L7.5282 17.8823L15.7739 26.0039L20.4413 21.4068L12.1956 13.2852Z" fill="black"/>
<path d="M7.10069 0.619141H0.5V24.4574H7.10069V0.619141Z" fill="black"/>
<path d="M15.7737 0.00195312L7.52795 8.12358L12.1954 12.7207L20.4411 4.59909L15.7737 0.00195312Z" fill="black"/>
<path d="M33.3133 2.1543L25.7103 23.8468H31.4336L31.5314 23.5499L36.5051 8.48707L41.5683 23.8468H47.2889L39.6994 2.1543H33.3133Z" fill="black"/>
<path d="M69.4297 13.1764C70.0816 12.1063 70.4023 10.8327 70.4023 9.39066C70.4023 7.95395 70.09 6.67507 69.4517 5.58083C68.8134 4.48657 67.8758 3.6331 66.6783 3.04183C65.4719 2.4452 64.0349 2.15625 62.3889 2.15625H53.6097V23.8461H58.9557V16.4619H61.52L65.5264 23.8461H71.4615L66.8439 15.5175C67.9523 14.9636 68.8296 14.1797 69.438 13.1764H69.4297ZM58.95 6.6162H61.5278C62.3454 6.6162 63.0004 6.73663 63.4946 6.95067C63.9915 7.17005 64.331 7.46432 64.5648 7.85495C64.7959 8.25093 64.9232 8.75392 64.9232 9.38801C64.9232 10.0167 64.7959 10.5063 64.5674 10.8862C64.3394 11.2635 64.0025 11.5444 63.5109 11.7451C63.0193 11.9457 62.3648 12.0581 61.5498 12.0581H58.95V6.61355V6.6162Z" fill="black"/>
<path d="M98.5 23.8468L90.9079 2.1543H84.5216L76.9216 23.8468H82.6418L82.7398 23.5499L87.7163 8.48707L92.7767 23.8468H98.5Z" fill="black"/>
</g>
</g>
<defs>
<clipPath id="clip0_592_5782">
<rect width="98" height="26" fill="white" transform="translate(0.5)"/>
</clipPath>
</defs>
</svg>
