<svg width="45" height="29" viewBox="0 0 45 29" fill="none" xmlns="http://www.w3.org/2000/svg">
<rect width="45" height="29" rx="2" fill="white"/>
<path d="M25.7327 8.54525H19.1071V20.4556H25.7327V8.54525Z" fill="#FF5F00"/>
<path d="M19.5278 14.5004C19.5268 13.3534 19.7866 12.2211 20.2877 11.1894C20.7887 10.1576 21.5179 9.25342 22.4199 8.54524C21.3029 7.66693 19.9613 7.12072 18.5486 6.96904C17.136 6.81737 15.7091 7.06634 14.4312 7.68751C13.1532 8.30868 12.0758 9.27699 11.322 10.4818C10.5682 11.6865 10.1685 13.0791 10.1685 14.5004C10.1685 15.9217 10.5682 17.3143 11.322 18.5191C12.0758 19.7238 13.1532 20.6921 14.4312 21.3133C15.7091 21.9345 17.136 22.1835 18.5486 22.0318C19.9613 21.8801 21.3029 21.3339 22.4199 20.4556C21.5179 19.7474 20.7888 18.8432 20.2877 17.8115C19.7866 16.7797 19.5268 15.6475 19.5278 14.5004Z" fill="#EB001B"/>
<path d="M34.671 14.5004C34.6711 15.9217 34.2714 17.3143 33.5176 18.519C32.7638 19.7238 31.6864 20.6921 30.4085 21.3133C29.1306 21.9345 27.7038 22.1834 26.2911 22.0318C24.8784 21.8801 23.5369 21.3339 22.4199 20.4556C23.3212 19.7467 24.0497 18.8423 24.5507 17.8108C25.0517 16.7792 25.312 15.6473 25.312 14.5004C25.312 13.3535 25.0517 12.2216 24.5507 11.1901C24.0497 10.1585 23.3212 9.25414 22.4199 8.54524C23.5369 7.66693 24.8784 7.12071 26.2911 6.96904C27.7038 6.81737 29.1306 7.06635 30.4085 7.68753C31.6864 8.30871 32.7638 9.27702 33.5176 10.4818C34.2714 11.6865 34.6711 13.0791 34.671 14.5004Z" fill="#F79E1B"/>
<path d="M33.9486 19.1941V18.9503H34.0469V18.9006H33.7966V18.9503H33.8949V19.1941H33.9486ZM34.4346 19.1941V18.9001H34.3578L34.2696 19.1023L34.1813 18.9001H34.1045V19.1941H34.1587V18.9723L34.2415 19.1635H34.2977L34.3804 18.9718V19.1941H34.4346Z" fill="#F79E1B"/>
</svg>
