<svg width="24" height="24" viewBox="0 0 24 24" fill="none" xmlns="http://www.w3.org/2000/svg">
<path d="M2 12C2 6.47715 6.47715 2 12 2C17.5228 2 22 6.47715 22 12C22 17.5228 17.5228 22 12 22C10.6211 22 9.30745 21.7209 8.11236 21.2161L10.6601 15.3929C11.3005 16.1824 12.2745 16.6667 13.3333 16.6667C15.9107 16.6667 18 14.5773 18 12V11.3333C18 8.38781 15.6121 6 12.6667 6H11.3333C8.38781 6 6 8.38781 6 11.3333V12C6 13.1948 6.44988 14.2861 7.18844 15.1113L8.18195 14.2221C7.65373 13.6319 7.33333 12.8542 7.33333 12V11.3333C7.33333 9.1242 9.1242 7.33333 11.3333 7.33333H12.6667C14.8758 7.33333 16.6667 9.1242 16.6667 11.3333V12C16.6667 13.8409 15.1743 15.3333 13.3333 15.3333C12.4259 15.3333 11.6203 14.7527 11.3333 13.8918L11.3262 13.8703L12.6109 10.9339L11.3893 10.3995L6.91988 20.6153C3.97511 18.8752 2 15.6683 2 12Z" fill="black"/>
</svg>
