<svg width="45" height="29" viewBox="0 0 45 29" fill="none" xmlns="http://www.w3.org/2000/svg">
<rect width="45" height="29" rx="2" fill="white"/>
<path d="M24.9356 12.7959C24.9356 14.4083 23.8061 15.5591 22.2272 15.5591H20.7402C20.7238 15.559 20.7076 15.5622 20.6924 15.5685C20.6772 15.5748 20.6635 15.5841 20.6519 15.5957C20.6285 15.6191 20.6153 15.6509 20.6153 15.6841V17.8032C20.6152 17.8363 20.602 17.8681 20.5786 17.8915C20.5552 17.9149 20.5235 17.9281 20.4903 17.9282H19.4493C19.4162 17.9281 19.3844 17.915 19.361 17.8915C19.3376 17.8681 19.3245 17.8363 19.3245 17.8032V10.1578C19.3245 10.1247 19.3376 10.0929 19.361 10.0695C19.3844 10.0461 19.4162 10.0329 19.4493 10.0328H22.2341C23.8061 10.0311 24.9356 11.1818 24.9356 12.7959ZM23.6378 12.7959C23.6378 11.8691 23.0062 11.1922 22.1491 11.1922H20.7402C20.7238 11.1921 20.7075 11.1953 20.6924 11.2016C20.6772 11.2079 20.6634 11.2171 20.6518 11.2287C20.6402 11.2403 20.631 11.2541 20.6247 11.2693C20.6185 11.2845 20.6152 11.3007 20.6153 11.3172V14.2677C20.6152 14.2841 20.6185 14.3004 20.6247 14.3156C20.631 14.3307 20.6402 14.3445 20.6518 14.3562C20.6634 14.3678 20.6772 14.377 20.6924 14.3832C20.7075 14.3895 20.7238 14.3927 20.7402 14.3927H22.1491C23.0062 14.398 23.6378 13.7211 23.6378 12.7959ZM25.2444 16.4617C25.2337 16.2144 25.2849 15.9684 25.3934 15.7459C25.5019 15.5234 25.6642 15.3315 25.8655 15.1877C26.2717 14.8823 26.9066 14.7242 27.8384 14.6912L28.8309 14.6566V14.3632C28.8309 13.7765 28.4369 13.5284 27.8053 13.5284C27.1739 13.5284 26.773 13.7524 26.6811 14.1186C26.6735 14.1442 26.6577 14.1667 26.636 14.1824C26.6143 14.1981 26.5881 14.2061 26.5613 14.2053H25.581C25.563 14.2058 25.545 14.2022 25.5285 14.1949C25.5119 14.1877 25.4972 14.1769 25.4853 14.1633C25.4734 14.1497 25.4646 14.1336 25.4595 14.1163C25.4545 14.0989 25.4533 14.0807 25.4561 14.0628C25.6019 13.1951 26.3237 12.5357 27.8506 12.5357C29.4746 12.5357 30.0609 13.2922 30.0609 14.7363V17.8032C30.0606 17.8365 30.047 17.8684 30.0233 17.8918C29.9996 17.9152 29.9676 17.9283 29.9343 17.9282H28.9453C28.9289 17.9282 28.9127 17.9251 28.8975 17.9188C28.8824 17.9125 28.8686 17.9033 28.857 17.8917C28.8454 17.8801 28.8362 17.8663 28.8299 17.8511C28.8236 17.8359 28.8204 17.8196 28.8204 17.8032V17.5742C28.8208 17.5553 28.8154 17.5368 28.805 17.521C28.7946 17.5053 28.7797 17.493 28.7623 17.4859C28.7448 17.4788 28.7256 17.4771 28.7072 17.4811C28.6887 17.4851 28.6719 17.4946 28.659 17.5083C28.3624 17.8309 27.8835 18.0637 27.1166 18.0637C25.9888 18.0637 25.2444 17.4769 25.2444 16.4617ZM28.8309 15.7968V15.5591L27.5451 15.6267C26.8684 15.6615 26.4746 15.9426 26.4746 16.4164C26.4746 16.8451 26.8355 17.083 27.4671 17.083C28.3242 17.083 28.8309 16.6194 28.8309 15.7968ZM31.0535 20.2453V19.3566C31.0534 19.3379 31.0575 19.3195 31.0655 19.3026C31.0735 19.2858 31.0852 19.2709 31.0996 19.2591C31.1141 19.2473 31.131 19.2388 31.1491 19.2344C31.1672 19.2299 31.1861 19.2296 31.2044 19.2334C31.356 19.2619 31.51 19.2764 31.6643 19.2767C31.9295 19.2898 32.1915 19.2134 32.4082 19.0599C32.625 18.9063 32.7839 18.6845 32.8597 18.4299L32.9239 18.225C32.9333 18.1974 32.9333 18.1675 32.9239 18.1399L30.8643 12.8497C30.8566 12.8305 30.8538 12.8097 30.8562 12.7891C30.8595 12.758 30.8742 12.7293 30.8975 12.7084C30.9209 12.6876 30.9511 12.6761 30.9824 12.6764H31.9799C32.0055 12.6764 32.0305 12.6843 32.0515 12.6988C32.0726 12.7133 32.0888 12.7339 32.098 12.7578L33.4965 16.4894C33.505 16.5144 33.5211 16.536 33.5426 16.5513C33.564 16.5666 33.5898 16.5748 33.6161 16.5746C33.6424 16.5746 33.6681 16.5664 33.6896 16.5511C33.711 16.5359 33.7272 16.5143 33.7359 16.4894L34.9504 12.7681C34.9589 12.7427 34.9752 12.7206 34.997 12.705C35.0188 12.6894 35.045 12.6812 35.0718 12.6814H36.1042C36.1249 12.6814 36.1453 12.6865 36.1636 12.6962C36.182 12.7058 36.1977 12.7198 36.2094 12.7368C36.2212 12.7539 36.2287 12.7735 36.2312 12.7941C36.2338 12.8146 36.2313 12.8355 36.224 12.8549L34.0204 18.73C33.5137 20.096 32.6446 20.4449 31.6868 20.4449C31.5053 20.4497 31.3241 20.4281 31.1488 20.3806C31.1195 20.373 31.0938 20.3552 31.0765 20.3304C31.0589 20.3056 31.0508 20.2755 31.0535 20.2453ZM12.6358 9.59193C11.3241 9.58262 10.0587 10.0764 9.09974 10.9718C9.05858 11.0094 9.03293 11.061 9.0278 11.1166C9.02268 11.1721 9.03845 11.2275 9.07202 11.2721L9.66544 12.0826C9.6847 12.1096 9.70964 12.132 9.73849 12.1484C9.76735 12.1647 9.79942 12.1746 9.83247 12.1772C9.86553 12.1798 9.89876 12.1752 9.92984 12.1637C9.96092 12.1521 9.9891 12.1339 10.0124 12.1103C10.3572 11.7655 10.7672 11.4928 11.2185 11.3083C11.6699 11.1238 12.1534 11.0312 12.641 11.0359C14.6763 11.0359 15.7397 12.5686 15.7397 14.0821C15.7397 15.7274 14.6224 16.8851 13.0175 16.9076C11.777 16.9076 10.8418 16.085 10.8418 14.9983C10.843 14.7238 10.9051 14.453 11.0236 14.2055C11.1421 13.9579 11.3141 13.7397 11.5271 13.5666C11.5722 13.5291 11.6008 13.4752 11.6067 13.4168C11.6125 13.3584 11.5952 13.2999 11.5584 13.2542L10.9337 12.4662C10.9148 12.4423 10.8914 12.4225 10.8647 12.4079C10.838 12.3933 10.8087 12.3841 10.7784 12.3811C10.7482 12.378 10.7176 12.3811 10.6886 12.39C10.6595 12.399 10.6325 12.4137 10.6093 12.4333C10.2261 12.7421 9.91691 13.1327 9.70434 13.5766C9.49176 14.0205 9.38121 14.5063 9.38079 14.9985C9.38079 16.8694 10.97 18.3362 13.0055 18.3483H13.033C15.4501 18.3169 17.1973 16.5258 17.1973 14.0786C17.1973 11.9056 15.5976 9.59193 12.6358 9.59193Z" fill="#5A31F4"/>
</svg>
