<svg width="25" height="25" viewBox="0 0 25 25" fill="none" xmlns="http://www.w3.org/2000/svg">
<path d="M2.09814 2.06055H3.40431C3.65033 2.06055 3.77334 2.06055 3.87233 2.10579C3.95956 2.14565 4.03349 2.20977 4.08529 2.29049C4.14408 2.38209 4.16148 2.50387 4.19627 2.74741L4.66957 6.06055M4.66957 6.06055L5.72146 13.7919C5.85495 14.7731 5.92169 15.2636 6.15624 15.6329C6.36292 15.9583 6.65923 16.217 7.0095 16.3779C7.40701 16.5605 7.90209 16.5605 8.89225 16.5605H17.4501C18.3927 16.5605 18.864 16.5605 19.2491 16.391C19.5887 16.2414 19.88 16.0004 20.0904 15.6948C20.3291 15.3482 20.4173 14.8852 20.5936 13.9593L21.9173 7.01024C21.9793 6.68435 22.0104 6.52141 21.9654 6.39405C21.9259 6.28232 21.8481 6.18823 21.7457 6.12856C21.629 6.06055 21.4631 6.06055 21.1314 6.06055H4.66957ZM10.0981 21.0605C10.0981 21.6128 9.65043 22.0605 9.09814 22.0605C8.54586 22.0605 8.09814 21.6128 8.09814 21.0605C8.09814 20.5083 8.54586 20.0605 9.09814 20.0605C9.65043 20.0605 10.0981 20.5083 10.0981 21.0605ZM18.0981 21.0605C18.0981 21.6128 17.6504 22.0605 17.0981 22.0605C16.5459 22.0605 16.0981 21.6128 16.0981 21.0605C16.0981 20.5083 16.5459 20.0605 17.0981 20.0605C17.6504 20.0605 18.0981 20.5083 18.0981 21.0605Z" stroke="#222222" stroke-width="1.5" stroke-linecap="round" stroke-linejoin="round"/>
</svg>
