<svg width="24" height="24" viewBox="0 0 24 24" fill="none" xmlns="http://www.w3.org/2000/svg">
<path d="M15.5556 6.6V5.88C15.5556 4.87191 15.5556 4.36786 15.3618 3.98282C15.1913 3.64413 14.9194 3.36876 14.5849 3.19619C14.2046 3 13.7068 3 12.7111 3H11.2889C10.2932 3 9.79542 3 9.41513 3.19619C9.08062 3.36876 8.80865 3.64413 8.63821 3.98282C8.44444 4.36786 8.44444 4.87191 8.44444 5.88V6.6M4 6.6H20M18.2222 6.6V16.68C18.2222 18.1921 18.2222 18.9482 17.9316 19.5258C17.6759 20.0338 17.268 20.4469 16.7662 20.7057C16.1958 21 15.449 21 13.9556 21H10.0444C8.55097 21 7.80423 21 7.2338 20.7057C6.73204 20.4469 6.32409 20.0338 6.06843 19.5258C5.77778 18.9482 5.77778 18.1921 5.77778 16.68V6.6" stroke="#958F8F" stroke-width="2" stroke-linecap="round" stroke-linejoin="round"/>
</svg>
