<svg width="45" height="29" viewBox="0 0 45 29" fill="none" xmlns="http://www.w3.org/2000/svg">
<rect width="45" height="29" rx="2" fill="white"/>
<path d="M22.225 9.7733L20.1261 19.5881H17.588L19.6873 9.7733H22.225ZM32.9036 16.1108L34.2399 12.425L35.0088 16.1108H32.9036ZM35.7355 19.5881H38.0832L36.0345 9.7733H33.8676C33.3806 9.7733 32.9698 10.0566 32.7869 10.4934L28.979 19.5881H31.6444L32.1736 18.1225H35.4299L35.7355 19.5881ZM29.1113 16.3835C29.1222 13.7931 25.5301 13.6505 25.555 12.4933C25.5624 12.1407 25.8981 11.7667 26.6313 11.6707C26.9956 11.6232 27.9971 11.5868 29.1343 12.1103L29.5796 10.029C28.9688 9.80716 28.1828 9.59375 27.2052 9.59375C24.6967 9.59375 22.9309 10.928 22.916 12.8384C22.9002 14.2513 24.1765 15.0397 25.1382 15.5094C26.127 15.9906 26.4593 16.2987 26.4549 16.729C26.4484 17.3878 25.6662 17.678 24.9364 17.6895C23.6601 17.7097 22.9194 17.345 22.3291 17.0697L21.8692 19.2203C22.462 19.4928 23.5567 19.7295 24.6923 19.7416C27.3583 19.7416 29.1026 18.4238 29.1113 16.3835ZM18.5982 9.7733L14.486 19.5881H11.8026L9.77916 11.7552C9.65618 11.2728 9.54935 11.0963 9.17577 10.8929C8.56618 10.562 7.55847 10.2511 6.67188 10.0585L6.73243 9.7733H11.0511C11.6014 9.7733 12.0967 10.1399 12.2216 10.7739L13.2905 16.4537L15.9316 9.7733H18.5982Z" fill="#1434CB"/>
</svg>
